{
  "source": "C:\\Users\\Peter\\Desktop\\stuff\\MIUN\\quantitative_research\\video_compression\\videos\\BVI-HD\\BVI-HD_CDVL_videos\\ORIG\\KineticFastPainting_1920x1080_60fps.mp4",
  "output": "C:\\Users\\Peter\\Desktop\\stuff\\MIUN\\quantitative_research\\video_compression\\compressed_videos\\BVI-HD\\vp9\\2\\KineticFastPainting_1920x1080_60fps_vp9.webm",
  "codec": "vp9",
  "ok": "Input #0, mov,mp4,m4a,3gp,3g2,mj2, from 'C:\\Users\\Peter\\Desktop\\stuff\\MIUN\\quantitative_research\\video_compression\\videos\\BVI-HD\\BVI-HD_CDVL_videos\\ORIG\\KineticFastPainting_1920x1080_60fps.mp4':\n  Metadata:\n    major_brand     : isom\n    minor_version   : 512\n    compatible_brands: isomiso2avc1mp41\n    encoder         : Lavf54.28.101\n  Duration: 00:00:05.00, start: 0.000000, bitrate: 477980 kb/s\n  Stream #0:0[0x1](und): Video: h264 (High 4:4:4 Predictive) (avc1 / 0x31637661), yuv420p(progressive), 1920x1080, 477974 kb/s, 60 fps, 60 tbr, 60 tbn (default)\n    Metadata:\n      handler_name    : VideoHandler\n      vendor_id       : [0][0][0][0]\n[out#0/webm @ 00000271b6e29100] Codec AVOption b:a (set bitrate (in bits/s)) has not been used for any stream. The most likely reason is either wrong type (e.g. a video option with no video streams) or that it is a private option of some decoder which was not actually used for any stream.\nStream mapping:\n  Stream #0:0 -> #0:0 (h264 (native) -> vp9 (libvpx-vp9))\nPress [q] to stop, [?] for help\n[libvpx-vp9 @ 00000271b78b00c0] v1.15.2-100-g40561f514\nOutput #0, webm, to 'C:\\Users\\Peter\\Desktop\\stuff\\MIUN\\quantitative_research\\video_compression\\compressed_videos\\BVI-HD\\vp9\\2\\KineticFastPainting_1920x1080_60fps_vp9.webm':\n  Metadata:\n    major_brand     : isom\n    minor_version   : 512\n    compatible_brands: isomiso2avc1mp41\n    encoder         : Lavf62.3.100\n  Stream #0:0(und): Video: vp9, yuv420p(tv, progressive), 1920x1080, q=2-31, 2000 kb/s, 60 fps, 1k tbn (default)\n    Metadata:\n      encoder         : Lavc62.11.100 libvpx-vp9\n      handler_name    : VideoHandler\n      vendor_id       : [0][0][0][0]\n    Side data:\n      cpb: bitrate max/min/avg: 0/0/0 buffer size: 2000000 vbv_delay: N/A\nframe=    0 fps=0.0 q=0.0 size=       0KiB time=N/A bitrate=N/A speed=N/A elapsed=0:00:00.51    \nframe=    0 fps=0.0 q=0.0 size=       0KiB time=N/A bitrate=N/A speed=N/A elapsed=0:00:01.10    \nframe=    5 fps=3.1 q=63.0 size=       1KiB time=00:00:00.06 bitrate=  76.0kbits/s speed=0.041x elapsed=0:00:01.62    \nframe=    8 fps=3.7 q=63.0 size=       1KiB time=00:00:00.13 bitrate=  38.0kbits/s speed=0.0611x elapsed=0:00:02.18    \nframe=   12 fps=4.5 q=63.0 size=       1KiB time=00:00:00.20 bitrate=  25.3kbits/s speed=0.0742x elapsed=0:00:02.69    \nframe=   15 fps=4.7 q=62.0 size=       1KiB time=00:00:00.25 bitrate=  20.3kbits/s speed=0.078x elapsed=0:00:03.20    \nframe=   19 fps=5.1 q=63.0 size=       1KiB time=00:00:00.31 bitrate=  16.0kbits/s speed=0.0843x elapsed=0:00:03.75    \nframe=   23 fps=5.3 q=63.0 size=       1KiB time=00:00:00.38 bitrate=  13.2kbits/s speed=0.0883x elapsed=0:00:04.33    \nframe=   27 fps=5.5 q=62.0 size=       1KiB time=00:00:00.45 bitrate=  11.3kbits/s speed=0.0925x elapsed=0:00:04.86    \nframe=   31 fps=5.7 q=62.0 size=       1KiB time=00:00:00.51 bitrate=   9.8kbits/s speed=0.0958x elapsed=0:00:05.39    \nframe=   35 fps=5.9 q=63.0 size=       1KiB time=00:00:00.58 bitrate=   8.7kbits/s speed=0.0979x elapsed=0:00:05.95    \nframe=   37 fps=5.7 q=55.0 size=       1KiB time=00:00:00.60 bitrate=   8.4kbits/s speed=0.092x elapsed=0:00:06.52    \nframe=   40 fps=5.6 q=62.0 size=       1KiB time=00:00:00.66 bitrate=   7.6kbits/s speed=0.0934x elapsed=0:00:07.14    \nframe=   42 fps=5.4 q=62.0 size=       1KiB time=00:00:00.70 bitrate=   7.2kbits/s speed=0.0904x elapsed=0:00:07.74    \nframe=   45 fps=5.4 q=62.0 size=       1KiB time=00:00:00.75 bitrate=   6.8kbits/s speed=0.0898x elapsed=0:00:08.35    \nframe=   47 fps=5.3 q=62.0 size=       1KiB time=00:00:00.78 bitrate=   6.5kbits/s speed=0.0881x elapsed=0:00:08.89    \nframe=   50 fps=5.3 q=63.0 size=       1KiB time=00:00:00.83 bitrate=   6.1kbits/s speed=0.0885x elapsed=0:00:09.41    \nframe=   53 fps=5.3 q=63.0 size=       1KiB time=00:00:00.88 bitrate=   5.7kbits/s speed=0.0889x elapsed=0:00:09.93    \nframe=   56 fps=5.4 q=63.0 size=       1KiB time=00:00:00.93 bitrate=   5.4kbits/s speed=0.0893x elapsed=0:00:10.45    \nframe=   60 fps=5.5 q=63.0 size=       1KiB time=00:00:00.98 bitrate=   5.1kbits/s speed=0.0896x elapsed=0:00:10.97    \nframe=   62 fps=5.4 q=63.0 size=       1KiB time=00:00:01.03 bitrate=   4.9kbits/s speed=0.0894x elapsed=0:00:11.55    \nframe=   66 fps=5.5 q=62.0 size=       1KiB time=00:00:01.10 bitrate=   4.6kbits/s speed=0.0911x elapsed=0:00:12.08    \nframe=   68 fps=5.4 q=63.0 size=       1KiB time=00:00:01.13 bitrate=   4.5kbits/s speed=0.0897x elapsed=0:00:12.63    \nframe=   71 fps=5.4 q=63.0 size=       1KiB time=00:00:01.18 bitrate=   4.3kbits/s speed=0.09x elapsed=0:00:13.14    \nframe=   73 fps=5.3 q=53.0 size=       1KiB time=00:00:01.20 bitrate=   4.2kbits/s speed=0.0877x elapsed=0:00:13.68    \nframe=   77 fps=5.4 q=63.0 size=       1KiB time=00:00:01.28 bitrate=   3.9kbits/s speed=0.0901x elapsed=0:00:14.23    \nframe=   80 fps=5.4 q=63.0 size=       1KiB time=00:00:01.33 bitrate=   3.8kbits/s speed=0.0903x elapsed=0:00:14.76    \nframe=   84 fps=5.5 q=63.0 size=       1KiB time=00:00:01.38 bitrate=   3.7kbits/s speed=0.0903x elapsed=0:00:15.32    \nframe=   85 fps=5.3 q=53.0 size=       1KiB time=00:00:01.41 bitrate=   3.6kbits/s speed=0.0888x elapsed=0:00:15.95    \nframe=   89 fps=5.4 q=63.0 size=       1KiB time=00:00:01.48 bitrate=   3.4kbits/s speed=0.0901x elapsed=0:00:16.47    \nframe=   91 fps=5.3 q=53.0 size=       1KiB time=00:00:01.51 bitrate=   3.3kbits/s speed=0.089x elapsed=0:00:17.03    \nframe=   95 fps=5.4 q=63.0 size=       1KiB time=00:00:01.58 bitrate=   3.2kbits/s speed=0.0902x elapsed=0:00:17.55    \nframe=   96 fps=5.3 q=63.0 size=       1KiB time=00:00:01.60 bitrate=   3.2kbits/s speed=0.0884x elapsed=0:00:18.09    \nframe=  100 fps=5.4 q=62.0 size=       1KiB time=00:00:01.66 bitrate=   3.0kbits/s speed=0.0893x elapsed=0:00:18.65    \nframe=  102 fps=5.3 q=63.0 size=       1KiB time=00:00:01.70 bitrate=   3.0kbits/s speed=0.0885x elapsed=0:00:19.20    \nframe=  107 fps=5.4 q=62.0 size=       1KiB time=00:00:01.78 bitrate=   2.8kbits/s speed=0.0904x elapsed=0:00:19.73    \nframe=  110 fps=5.4 q=63.0 size=       1KiB time=00:00:01.83 bitrate=   2.8kbits/s speed=0.0902x elapsed=0:00:20.32    \nframe=  113 fps=5.4 q=63.0 size=       1KiB time=00:00:01.88 bitrate=   2.7kbits/s speed=0.0898x elapsed=0:00:20.97    \nframe=  115 fps=5.3 q=53.0 size=       1KiB time=00:00:01.91 bitrate=   2.6kbits/s speed=0.0889x elapsed=0:00:21.54    \nframe=  119 fps=5.4 q=62.0 size=       1KiB time=00:00:01.98 bitrate=   2.6kbits/s speed=0.0897x elapsed=0:00:22.11    \nframe=  122 fps=5.4 q=61.0 size=       1KiB time=00:00:02.03 bitrate=   2.5kbits/s speed=0.0897x elapsed=0:00:22.67    \nframe=  125 fps=5.4 q=60.0 size=       1KiB time=00:00:02.08 bitrate=   2.4kbits/s speed=0.0898x elapsed=0:00:23.20    \nframe=  128 fps=5.4 q=61.0 size=       1KiB time=00:00:02.13 bitrate=   2.4kbits/s speed=0.0897x elapsed=0:00:23.78    \nframe=  132 fps=5.4 q=62.0 size=     512KiB time=00:00:02.20 bitrate=1906.5kbits/s speed=0.0903x elapsed=0:00:24.36    \nframe=  136 fps=5.5 q=63.0 size=     512KiB time=00:00:02.26 bitrate=1850.4kbits/s speed=0.091x elapsed=0:00:24.89    \nframe=  139 fps=5.5 q=63.0 size=     512KiB time=00:00:02.31 bitrate=1810.5kbits/s speed=0.0909x elapsed=0:00:25.47    \nframe=  141 fps=5.4 q=52.0 size=     512KiB time=00:00:02.35 bitrate=1784.8kbits/s speed=0.09x elapsed=0:00:26.11    \nframe=  145 fps=5.4 q=62.0 size=     512KiB time=00:00:02.41 bitrate=1735.6kbits/s speed=0.0905x elapsed=0:00:26.68    \nframe=  148 fps=5.4 q=63.0 size=     512KiB time=00:00:02.46 bitrate=1700.4kbits/s speed=0.0906x elapsed=0:00:27.21    \nframe=  151 fps=5.4 q=63.0 size=     512KiB time=00:00:02.51 bitrate=1666.6kbits/s speed=0.0907x elapsed=0:00:27.74    \nframe=  152 fps=5.4 q=63.0 size=     512KiB time=00:00:02.53 bitrate=1655.6kbits/s speed=0.0896x elapsed=0:00:28.27    \nframe=  156 fps=5.4 q=62.0 size=     512KiB time=00:00:02.60 bitrate=1613.2kbits/s speed=0.0902x elapsed=0:00:28.82    \nframe=  158 fps=5.4 q=63.0 size=     512KiB time=00:00:02.63 bitrate=1592.8kbits/s speed=0.0897x elapsed=0:00:29.35    \nframe=  162 fps=5.4 q=63.0 size=     512KiB time=00:00:02.70 bitrate=1553.4kbits/s speed=0.0903x elapsed=0:00:29.88    \nframe=  164 fps=5.4 q=63.0 size=     512KiB time=00:00:02.73 bitrate=1534.5kbits/s speed=0.0899x elapsed=0:00:30.42    \nframe=  167 fps=5.4 q=62.0 size=     512KiB time=00:00:02.78 bitrate=1506.9kbits/s speed=0.0898x elapsed=0:00:31.00    \nframe=  171 fps=5.4 q=53.0 size=     512KiB time=00:00:02.85 bitrate=1471.7kbits/s speed=0.0903x elapsed=0:00:31.56    \nframe=  175 fps=5.5 q=63.0 size=     512KiB time=00:00:02.91 bitrate=1438.0kbits/s speed=0.0909x elapsed=0:00:32.10    \nframe=  176 fps=5.4 q=63.0 size=     512KiB time=00:00:02.93 bitrate=1429.9kbits/s speed=0.0898x elapsed=0:00:32.65    \nframe=  179 fps=5.4 q=62.0 size=     512KiB time=00:00:02.98 bitrate=1405.9kbits/s speed=0.0899x elapsed=0:00:33.18    \nframe=  182 fps=5.4 q=63.0 size=     512KiB time=00:00:03.03 bitrate=1382.7kbits/s speed=0.09x elapsed=0:00:33.70    \nframe=  187 fps=5.5 q=62.0 size=     512KiB time=00:00:03.11 bitrate=1345.8kbits/s speed=0.091x elapsed=0:00:34.23    \nframe=  188 fps=5.4 q=62.0 size=     512KiB time=00:00:03.13 bitrate=1338.6kbits/s speed=0.0901x elapsed=0:00:34.78    \nframe=  191 fps=5.4 q=62.0 size=     512KiB time=00:00:03.18 bitrate=1317.6kbits/s speed=0.0902x elapsed=0:00:35.29    \nframe=  194 fps=5.4 q=62.0 size=     512KiB time=00:00:03.23 bitrate=1297.2kbits/s speed=0.0902x elapsed=0:00:35.83    \nframe=  198 fps=5.4 q=62.0 size=     512KiB time=00:00:03.30 bitrate=1271.0kbits/s speed=0.0907x elapsed=0:00:36.38    \nframe=  200 fps=5.4 q=62.0 size=     512KiB time=00:00:03.33 bitrate=1258.3kbits/s speed=0.0903x elapsed=0:00:36.92    \nframe=  203 fps=5.4 q=62.0 size=     512KiB time=00:00:03.38 bitrate=1239.7kbits/s speed=0.0903x elapsed=0:00:37.47    \nframe=  206 fps=5.4 q=63.0 size=     512KiB time=00:00:03.43 bitrate=1221.6kbits/s speed=0.0903x elapsed=0:00:38.01    \nframe=  210 fps=5.4 q=62.0 size=     512KiB time=00:00:03.50 bitrate=1198.4kbits/s speed=0.0908x elapsed=0:00:38.55    \nframe=  213 fps=5.4 q=53.0 size=     512KiB time=00:00:03.55 bitrate=1181.5kbits/s speed=0.0906x elapsed=0:00:39.18    \nframe=  216 fps=5.4 q=62.0 size=     512KiB time=00:00:03.60 bitrate=1165.1kbits/s speed=0.0905x elapsed=0:00:39.78    \nframe=  218 fps=5.4 q=62.0 size=     512KiB time=00:00:03.63 bitrate=1154.4kbits/s speed=0.0901x elapsed=0:00:40.33    \nframe=  222 fps=5.4 q=62.0 size=     512KiB time=00:00:03.70 bitrate=1133.6kbits/s speed=0.0906x elapsed=0:00:40.84    \nframe=  226 fps=5.5 q=62.0 size=     512KiB time=00:00:03.75 bitrate=1118.5kbits/s speed=0.0906x elapsed=0:00:41.37    \nframe=  228 fps=5.4 q=62.0 size=     512KiB time=00:00:03.80 bitrate=1103.8kbits/s speed=0.0905x elapsed=0:00:41.96    \nframe=  230 fps=5.4 q=62.0 size=     512KiB time=00:00:03.83 bitrate=1094.2kbits/s speed=0.0902x elapsed=0:00:42.50    \nframe=  233 fps=5.4 q=62.0 size=     512KiB time=00:00:03.88 bitrate=1080.1kbits/s speed=0.0902x elapsed=0:00:43.05    \nframe=  236 fps=5.4 q=63.0 size=     512KiB time=00:00:03.93 bitrate=1066.3kbits/s speed=0.0902x elapsed=0:00:43.58    \nframe=  239 fps=5.4 q=62.0 size=     512KiB time=00:00:03.98 bitrate=1053.0kbits/s speed=0.0903x elapsed=0:00:44.10    \nframe=  242 fps=5.4 q=63.0 size=     512KiB time=00:00:04.03 bitrate=1039.9kbits/s speed=0.0903x elapsed=0:00:44.65    \nframe=  246 fps=5.4 q=62.0 size=     512KiB time=00:00:04.10 bitrate=1023.0kbits/s speed=0.0907x elapsed=0:00:45.19    \nframe=  248 fps=5.4 q=63.0 size=     512KiB time=00:00:04.13 bitrate=1014.8kbits/s speed=0.0904x elapsed=0:00:45.70    \nframe=  252 fps=5.5 q=61.0 size=     512KiB time=00:00:04.20 bitrate= 998.6kbits/s speed=0.0908x elapsed=0:00:46.23    \nframe=  256 fps=5.5 q=62.0 size=     512KiB time=00:00:04.26 bitrate= 983.0kbits/s speed=0.0912x elapsed=0:00:46.78    \nframe=  259 fps=5.5 q=63.0 size=    1024KiB time=00:00:04.31 bitrate=1943.3kbits/s speed=0.0912x elapsed=0:00:47.33    \nframe=  262 fps=5.5 q=63.0 size=    1024KiB time=00:00:04.36 bitrate=1921.1kbits/s speed=0.0912x elapsed=0:00:47.87    \nframe=  266 fps=5.5 q=63.0 size=    1024KiB time=00:00:04.43 bitrate=1892.2kbits/s speed=0.0916x elapsed=0:00:48.42    \nframe=  269 fps=5.5 q=54.0 size=    1024KiB time=00:00:04.48 bitrate=1871.1kbits/s speed=0.0915x elapsed=0:00:49.01    \nframe=  273 fps=5.5 q=63.0 size=    1024KiB time=00:00:04.55 bitrate=1843.7kbits/s speed=0.0918x elapsed=0:00:49.56    \nframe=  276 fps=5.5 q=63.0 size=    1024KiB time=00:00:04.60 bitrate=1823.6kbits/s speed=0.0918x elapsed=0:00:50.12    \nframe=  276 fps=5.4 q=63.0 size=    1024KiB time=00:00:04.60 bitrate=1823.6kbits/s speed=0.0908x elapsed=0:00:50.66    \nframe=  276 fps=5.4 q=63.0 size=    1024KiB time=00:00:04.60 bitrate=1823.6kbits/s speed=0.0899x elapsed=0:00:51.18    \nframe=  276 fps=5.3 q=63.0 size=    1024KiB time=00:00:04.60 bitrate=1823.6kbits/s speed=0.089x elapsed=0:00:51.71    \nframe=  276 fps=5.3 q=63.0 size=    1024KiB time=00:00:04.60 bitrate=1823.6kbits/s speed=0.0881x elapsed=0:00:52.21    \nframe=  276 fps=5.2 q=63.0 size=    1024KiB time=00:00:04.60 bitrate=1823.6kbits/s speed=0.0872x elapsed=0:00:52.77    \nframe=  276 fps=5.2 q=63.0 size=    1024KiB time=00:00:04.60 bitrate=1823.6kbits/s speed=0.0863x elapsed=0:00:53.30    \n[out#0/webm @ 00000271b6e29100] video:1272KiB audio:0KiB subtitle:0KiB other streams:0KiB global headers:0KiB muxing overhead: 0.217298%\nframe=  300 fps=5.6 q=63.0 Lsize=    1275KiB time=00:00:05.00 bitrate=2088.3kbits/s speed=0.0934x elapsed=0:00:53.56    \n",
  "seconds": 54.125004291534424,
  "probe_out": {}
}